<?xml version="1.0" encoding="UTF-8"?>
<svg version="1.1" xmlns="http://www.w3.org/2000/svg" width="192" height="192">
<path d="M0 0 C63.36 0 126.72 0 192 0 C192 63.36 192 126.72 192 192 C128.64 192 65.28 192 0 192 C0 128.64 0 65.28 0 0 Z " fill="#F3F3F3" transform="translate(0,0)"/>
<path d="M0 0 C0.89525391 -0.01611328 1.79050781 -0.03222656 2.71289062 -0.04882812 C16.07089172 -0.05847289 26.19915897 5.15566491 35.83203125 14.2109375 C39.09227994 17.85911452 41.69882467 21.90173123 43.8125 26.3125 C44.18632812 27.05628906 44.56015625 27.80007812 44.9453125 28.56640625 C49.57919192 39.17896225 49.56926945 51.67822274 45.625 62.5 C43.52500475 67.23998927 41.08121862 71.2966457 37.8125 75.3125 C39.3974623 79.30247542 42.19923902 81.85682326 45.2578125 84.7421875 C46.34562731 85.79497887 47.43284914 86.84838325 48.51953125 87.90234375 C50.22950864 89.55035475 51.94358572 91.19325954 53.66845703 92.82568359 C55.33688664 94.40933431 56.9857288 96.01138693 58.6328125 97.6171875 C59.41085739 98.33936966 59.41085739 98.33936966 60.20462036 99.07614136 C62.74075691 101.57531694 63.76829801 102.97588488 64.23779297 106.55126953 C63.8125 109.3125 63.8125 109.3125 62.1875 111.1875 C59.041661 112.67763426 57.28107033 112.76780533 53.8125 112.3125 C51.45274613 110.47667684 49.57034242 108.77325626 47.5390625 106.625 C46.97045502 106.04790283 46.40184753 105.47080566 45.81600952 104.8762207 C44.00857263 103.03527877 42.22314143 101.17456592 40.4375 99.3125 C39.2136352 98.0585322 37.98838913 96.80591093 36.76171875 95.5546875 C33.76241206 92.48933504 30.78266891 89.40608313 27.8125 86.3125 C25.00708842 87.42128277 22.24921375 88.56757302 19.5 89.8125 C8.09045736 94.45366989 -3.68443073 95.06674652 -15.3125 90.62890625 C-26.84581356 85.34802762 -36.91203528 77.08084438 -42.1875 65.3125 C-46.42435621 53.35719703 -47.13052932 39.9832365 -42.5078125 28.0546875 C-36.63657351 15.86057576 -27.55265918 7.59430641 -15.1875 2.3125 C-14.47464844 1.94511719 -13.76179688 1.57773437 -13.02734375 1.19921875 C-8.707959 -0.14947498 -4.4981191 -0.01584961 0 0 Z " fill="#EFEFEF" transform="translate(85.1875,36.6875)"/>
<path d="M0 0 C0.89525391 -0.01611328 1.79050781 -0.03222656 2.71289062 -0.04882812 C16.07089172 -0.05847289 26.19915897 5.15566491 35.83203125 14.2109375 C39.09227994 17.85911452 41.69882467 21.90173123 43.8125 26.3125 C44.18632812 27.05628906 44.56015625 27.80007812 44.9453125 28.56640625 C49.57919192 39.17896225 49.56926945 51.67822274 45.625 62.5 C43.52500475 67.23998927 41.08121862 71.2966457 37.8125 75.3125 C39.3974623 79.30247542 42.19923902 81.85682326 45.2578125 84.7421875 C46.34562731 85.79497887 47.43284914 86.84838325 48.51953125 87.90234375 C50.22950864 89.55035475 51.94358572 91.19325954 53.66845703 92.82568359 C55.33688664 94.40933431 56.9857288 96.01138693 58.6328125 97.6171875 C59.41085739 98.33936966 59.41085739 98.33936966 60.20462036 99.07614136 C62.74075691 101.57531694 63.76829801 102.97588488 64.23779297 106.55126953 C63.8125 109.3125 63.8125 109.3125 62.1875 111.1875 C59.041661 112.67763426 57.28107033 112.76780533 53.8125 112.3125 C51.45274613 110.47667684 49.57034242 108.77325626 47.5390625 106.625 C46.97045502 106.04790283 46.40184753 105.47080566 45.81600952 104.8762207 C44.00857263 103.03527877 42.22314143 101.17456592 40.4375 99.3125 C39.2136352 98.0585322 37.98838913 96.80591093 36.76171875 95.5546875 C33.76241206 92.48933504 30.78266891 89.40608313 27.8125 86.3125 C25.00708842 87.42128277 22.24921375 88.56757302 19.5 89.8125 C8.09045736 94.45366989 -3.68443073 95.06674652 -15.3125 90.62890625 C-26.84581356 85.34802762 -36.91203528 77.08084438 -42.1875 65.3125 C-46.42435621 53.35719703 -47.13052932 39.9832365 -42.5078125 28.0546875 C-36.63657351 15.86057576 -27.55265918 7.59430641 -15.1875 2.3125 C-14.47464844 1.94511719 -13.76179688 1.57773437 -13.02734375 1.19921875 C-8.707959 -0.14947498 -4.4981191 -0.01584961 0 0 Z M-27.9375 25.125 C-34.54105378 34.48003452 -35.12798485 43.45136927 -33.9375 54.66796875 C-32.30469389 63.18917564 -25.80891923 70.97934852 -19.1875 76.3125 C-12.69531851 80.25332604 -7.08721006 81.51343154 0.5 81.5625 C1.27794922 81.583125 2.05589844 81.60375 2.85742188 81.625 C13.0048994 81.69270627 20.35032465 77.67399009 27.5078125 70.6484375 C35.50579327 61.84663957 37.33451138 52.70762986 37.2109375 40.98046875 C36.20324943 31.70381093 30.93862562 24.40677346 24.2578125 18.15625 C20.42444319 15.26591403 16.37572621 13.69629423 11.8125 12.3125 C10.8225 11.9825 9.8325 11.6525 8.8125 11.3125 C-7.29932278 10.19692544 -16.54730639 13.47593835 -27.9375 25.125 Z " fill="#191919" transform="translate(85.1875,36.6875)"/>
<path d="M0 0 C3.3 0 6.6 0 10 0 C14.88148095 10.32620969 18.39277927 21.17833782 22 32 C22.33 25.73 22.66 19.46 23 13 C25.31 13 27.62 13 30 13 C30 20.92 30 28.84 30 37 C25.05 37 20.1 37 15 37 C14.01 34.69 13.02 32.38 12 30 C7.71 30 3.42 30 -1 30 C-1.66 32.31 -2.32 34.62 -3 37 C-5.97 37 -8.94 37 -12 37 C-11.47386773 32.13327649 -9.95575732 27.90206456 -8.25 23.35546875 C-6.72199249 19.2537236 -5.26515917 15.12890937 -3.8125 11 C-3.41961792 9.88661255 -3.41961792 9.88661255 -3.01879883 8.75073242 C-1.99281104 5.83992251 -0.976004 2.92801201 0 0 Z " fill="#181818" transform="translate(76,63)"/>
<path d="M0 0 C2 1 2 1 2.8515625 2.9609375 C3.10679688 3.75757812 3.36203125 4.55421875 3.625 5.375 C3.88539062 6.16648437 4.14578125 6.95796875 4.4140625 7.7734375 C5 10 5 10 5 13 C2.03 13 -0.94 13 -4 13 C-3.27991594 8.39146203 -1.68704061 4.32762591 0 0 Z " fill="#D2D2D2" transform="translate(81,73)"/>
<path d="M0 0 C2.5 0.25 2.5 0.25 4.5 2.25 C4.13318342 5.18453261 3.63562754 6.11437246 1.5 8.25 C-1.125 7.875 -1.125 7.875 -3.5 7.25 C-4.125 4.875 -4.125 4.875 -4.5 2.25 C-2.5 0.25 -2.5 0.25 0 0 Z " fill="#6B6B6B" transform="translate(102.5,65.75)"/>
</svg>
